<svg width="1336" height="565" viewBox="0 0 1336 565" fill="none" xmlns="http://www.w3.org/2000/svg">
<path d="M152 73.217C82.1667 72.6517 -14.5017 16.2751 -14.5017 16.2751L-97 126.705H1355.97C1355.97 126.705 1398.42 73.2338 1365.47 52.1648C1330.99 30.1191 1301.18 44.3478 1251.5 42.203C1185.12 39.337 1180.36 27.2966 1114 24.2239C1034.07 20.5223 979.363 93.6391 899.5 89.3982C827.895 85.5959 770.321 17.6392 698.483 16.2751C612.265 14.6379 618.374 78.215 532.5 73.217C465.316 69.3068 398.344 18.8666 330.991 16.2751C258.52 13.4866 224.607 73.8048 152 73.217Z" fill="#E39C8B" fill-opacity="0.6"/>
<path d="M152 73.217C82.1667 72.6517 -14.5017 16.2751 -14.5017 16.2751L-97 126.705H1355.97C1355.97 126.705 1398.42 73.2338 1365.47 52.1648C1330.99 30.1191 1301.18 44.3478 1251.5 42.203C1185.12 39.337 1180.36 27.2966 1114 24.2239C1034.07 20.5223 979.363 93.6391 899.5 89.3982C827.895 85.5959 770.321 17.6392 698.483 16.2751C612.265 14.6379 618.374 78.215 532.5 73.217C465.316 69.3068 398.344 18.8666 330.991 16.2751C258.52 13.4866 224.607 73.8048 152 73.217Z" fill="#E39C8B" fill-opacity="0.6"/>
<path d="M134.356 6.88437C69.3458 3.78336 -25.7957 42.0712 -25.7957 42.0712L-41 105.178H1334.99L1336 0C1336 0 1206.72 62.8111 1114.02 63.4892C1028.71 64.1133 991.487 10.4331 906.226 12.6213C829.011 14.6031 797.428 61.2199 720.227 63.4892C633.663 66.0337 595.517 12.7566 508.888 12.6213C421.693 12.4852 382.721 70.5443 296.028 63.4892C226.828 57.8577 203.818 10.1978 134.356 6.88437Z" fill="url(#paint0_linear_84_4)"/>
<rect y="80.9061" width="1336" height="483.639" fill="#D17165"/>
<defs>
<linearGradient id="paint0_linear_84_4" x1="717.5" y1="70.1186" x2="718.308" y2="-0.00220942" gradientUnits="userSpaceOnUse">
<stop stop-color="#D17165"/>
<stop offset="0.657661" stop-color="#D17165" stop-opacity="0.5"/>
</linearGradient>
</defs>
</svg>
