<svg width="48" height="71" viewBox="0 0 48 71" fill="none" xmlns="http://www.w3.org/2000/svg">
<path d="M46 46.5003L46.993 46.618L46 46.5003ZM0.849749 62.2406C0.430139 62.5997 0.381083 63.2309 0.740174 63.6506L6.59192 70.4885C6.95101 70.9081 7.58227 70.9571 8.00188 70.598C8.42149 70.2389 8.47055 69.6077 8.11146 69.1881L2.90991 63.1099L8.98805 57.9084C9.40766 57.5493 9.45672 56.918 9.09763 56.4984C8.73853 56.0788 8.10727 56.0298 7.68766 56.3888L0.849749 62.2406ZM14.5 0.999897C14.0059 1.86927 14.0057 1.8692 14.0057 1.8692C14.0059 1.8693 14.0061 1.86938 14.0064 1.86958C14.0071 1.86999 14.0083 1.87069 14.0101 1.87169C14.0136 1.87368 14.0192 1.87687 14.0268 1.88124C14.042 1.88997 14.0653 1.90344 14.0965 1.92159C14.159 1.95788 14.2529 2.01289 14.376 2.0862C14.6224 2.23282 14.9859 2.45261 15.4487 2.74228C16.3746 3.3217 17.6977 4.18022 19.2775 5.29154C22.4393 7.51574 26.6181 10.7446 30.697 14.7669C38.8994 22.8554 46.4823 33.9352 45.0069 46.3826L46.993 46.618C48.5821 33.2116 40.415 21.5411 32.1013 13.3429C27.9222 9.22182 23.6515 5.92319 20.4282 3.65574C18.8154 2.52122 17.4621 1.64287 16.5097 1.04689C16.0335 0.748848 15.6573 0.521295 15.3988 0.367502C15.2696 0.290602 15.1698 0.232132 15.1016 0.192502C15.0675 0.172686 15.0414 0.15758 15.0234 0.147233C15.0144 0.14206 15.0074 0.138076 15.0025 0.135289C15.0001 0.133896 14.9982 0.132801 14.9968 0.132007C14.9961 0.131609 14.9954 0.131238 14.9951 0.13104C14.9946 0.130744 14.9942 0.130523 14.5 0.999897ZM45.0069 46.3826C44.4694 50.9174 41.6627 54.1839 37.5577 56.5557C33.4319 58.9394 28.0835 60.3594 22.7201 61.1778C17.3707 61.9942 12.0819 62.2014 8.12297 62.2033C6.14555 62.2042 4.50467 62.1539 3.3599 62.1035C2.78761 62.0783 2.33958 62.0531 2.03579 62.0342C1.8839 62.0248 1.76809 62.017 1.69086 62.0116C1.65224 62.0089 1.62327 62.0068 1.60427 62.0054C1.59476 62.0047 1.58774 62.0042 1.58326 62.0038C1.58101 62.0036 1.5794 62.0035 1.57843 62.0034C1.57794 62.0034 1.57769 62.0034 1.57745 62.0034C1.57735 62.0034 1.57742 62.0034 1.49994 63.0004C1.42246 63.9974 1.42285 63.9974 1.4234 63.9974C1.4238 63.9975 1.42451 63.9975 1.42531 63.9976C1.4269 63.9977 1.42913 63.9979 1.43199 63.9981C1.43772 63.9985 1.44598 63.9991 1.45675 63.9999C1.47828 64.0015 1.50981 64.0038 1.55103 64.0067C1.63347 64.0125 1.75466 64.0207 1.9121 64.0304C2.22697 64.0499 2.68693 64.0758 3.27192 64.1015C4.44171 64.153 6.11257 64.2042 8.1239 64.2033C12.1425 64.2014 17.5392 63.9916 23.0218 63.155C28.4903 62.3204 34.1205 60.8514 38.5582 58.2874C43.0167 55.7114 46.3585 51.9713 46.993 46.618L45.0069 46.3826Z" fill="#3B1B16"/>
</svg>
