<svg width="90" height="55" viewBox="0 0 90 55" fill="none" xmlns="http://www.w3.org/2000/svg">
<ellipse cx="26.9072" cy="27.5" rx="26.9072" ry="27.5" fill="#E39C8B"/>
<path d="M12.048 34.5347L12.144 34.0307C13.024 34.0307 13.552 33.8707 13.728 33.5507L15.744 21.4787C15.648 21.1587 15.168 20.9987 14.304 20.9987L14.4 20.4947H17.904L21.144 31.6547L28.128 20.4947H31.68L31.584 20.9987C30.704 20.9987 30.176 21.1587 30 21.4787L27.984 33.5507C28.08 33.8707 28.56 34.0307 29.424 34.0307L29.328 34.5347H24.096L24.192 34.0307C25.072 34.0307 25.6 33.8707 25.776 33.5507L27.576 22.7747L20.232 34.5347H19.872L16.368 22.6307L14.544 33.5507C14.64 33.8707 15.12 34.0307 15.984 34.0307L15.888 34.5347H12.048ZM31.9097 33.5267C31.9097 33.0787 32.0777 32.6787 32.4137 32.3267C32.7497 31.9747 33.1417 31.7987 33.5897 31.7987C33.9257 31.7987 34.2137 31.9187 34.4537 32.1587C34.7097 32.3987 34.8377 32.6867 34.8377 33.0227C34.8377 33.4547 34.6617 33.8547 34.3097 34.2227C33.9577 34.5907 33.5577 34.7747 33.1097 34.7747C32.7897 34.7747 32.5097 34.6547 32.2697 34.4147C32.0297 34.1747 31.9097 33.8787 31.9097 33.5267Z" fill="#E9E1DC"/>
<ellipse cx="63.0928" cy="27.5" rx="26.9072" ry="27.5" fill="#C8ADA0"/>
<path d="M60.816 21.0707C59.2 21.0707 57.744 21.9027 56.448 23.5667C55.168 25.2307 54.528 27.1667 54.528 29.3747C54.528 30.9267 54.904 32.0787 55.656 32.8307C56.408 33.5827 57.296 33.9587 58.32 33.9587C59.2 33.9587 60.072 33.8067 60.936 33.5027L61.776 28.5827C61.68 28.2627 61.2 28.1027 60.336 28.1027L60.408 27.5987H65.64L65.568 28.1027C64.688 28.1027 64.16 28.2627 63.984 28.5827L63.288 32.6147C62.936 33.1267 62.304 33.6147 61.392 34.0787C60.496 34.5427 59.408 34.7747 58.128 34.7747C56.224 34.7747 54.736 34.2147 53.664 33.0947C52.592 31.9747 52.056 30.5907 52.056 28.9427C52.056 27.6467 52.328 26.4387 52.872 25.3187C53.432 24.1987 54.144 23.2787 55.008 22.5587C55.888 21.8387 56.84 21.2787 57.864 20.8787C58.904 20.4627 59.928 20.2547 60.936 20.2547C61.416 20.2547 61.976 20.3747 62.616 20.6147C63.256 20.8547 63.624 20.9747 63.72 20.9747C63.912 20.9747 64.032 20.8147 64.08 20.4947H64.632L64.368 23.5427H63.84C63.84 22.8867 63.576 22.3107 63.048 21.8147C62.52 21.3187 61.776 21.0707 60.816 21.0707ZM66.2691 33.5267C66.2691 33.0787 66.4371 32.6787 66.7731 32.3267C67.1091 31.9747 67.5011 31.7987 67.9491 31.7987C68.2851 31.7987 68.5731 31.9187 68.8131 32.1587C69.0691 32.3987 69.1971 32.6867 69.1971 33.0227C69.1971 33.4547 69.0211 33.8547 68.6691 34.2227C68.3171 34.5907 67.9171 34.7747 67.4691 34.7747C67.1491 34.7747 66.8691 34.6547 66.6291 34.4147C66.3891 34.1747 66.2691 33.8787 66.2691 33.5267Z" fill="#E9E1DC"/>
</svg>
