<svg width="55" height="29" viewBox="0 0 55 29" fill="none" xmlns="http://www.w3.org/2000/svg">
<ellipse cx="16.4433" cy="14.5" rx="16.4433" ry="14.5" fill="#E39C8B"/>
<path d="M3.38646 19.5L3.45846 19.122C4.11846 19.122 4.51446 19.002 4.64646 18.762L6.15846 9.708C6.08646 9.468 5.72646 9.348 5.07846 9.348L5.15046 8.97H7.77846L10.2085 17.34L15.4465 8.97H18.1105L18.0385 9.348C17.3785 9.348 16.9825 9.468 16.8505 9.708L15.3385 18.762C15.4105 19.002 15.7705 19.122 16.4185 19.122L16.3465 19.5H12.4225L12.4945 19.122C13.1545 19.122 13.5505 19.002 13.6825 18.762L15.0325 10.68L9.52446 19.5H9.25446L6.62646 10.572L5.25846 18.762C5.33046 19.002 5.69046 19.122 6.33846 19.122L6.26646 19.5H3.38646ZM18.2827 18.744C18.2827 18.408 18.4087 18.108 18.6607 17.844C18.9127 17.58 19.2067 17.448 19.5427 17.448C19.7947 17.448 20.0107 17.538 20.1907 17.718C20.3827 17.898 20.4787 18.114 20.4787 18.366C20.4787 18.69 20.3467 18.99 20.0827 19.266C19.8187 19.542 19.5187 19.68 19.1827 19.68C18.9427 19.68 18.7327 19.59 18.5527 19.41C18.3727 19.23 18.2827 19.008 18.2827 18.744Z" fill="#E9E1DC"/>
<ellipse cx="38.5567" cy="14.5" rx="16.4433" ry="14.5" fill="#C8ADA0"/>
<path d="M35.5579 9.402C34.3459 9.402 33.2539 10.026 32.2819 11.274C31.3219 12.522 30.8419 13.974 30.8419 15.63C30.8419 16.794 31.1239 17.658 31.6879 18.222C32.2519 18.786 32.9179 19.068 33.6859 19.068C34.3459 19.068 34.9999 18.954 35.6479 18.726L36.2779 15.036C36.2059 14.796 35.8459 14.676 35.1979 14.676L35.2519 14.298H39.1759L39.1219 14.676C38.4619 14.676 38.0659 14.796 37.9339 15.036L37.4119 18.06C37.1479 18.444 36.6739 18.81 35.9899 19.158C35.3179 19.506 34.5019 19.68 33.5419 19.68C32.1139 19.68 30.9979 19.26 30.1939 18.42C29.3899 17.58 28.9879 16.542 28.9879 15.306C28.9879 14.334 29.1919 13.428 29.5999 12.588C30.0199 11.748 30.5539 11.058 31.2019 10.518C31.8619 9.978 32.5759 9.558 33.3439 9.258C34.1239 8.946 34.8919 8.79 35.6479 8.79C36.0079 8.79 36.4279 8.88 36.9079 9.06C37.3879 9.24 37.6639 9.33 37.7359 9.33C37.8799 9.33 37.9699 9.21 38.0059 8.97H38.4199L38.2219 11.256H37.8259C37.8259 10.764 37.6279 10.332 37.2319 9.96C36.8359 9.588 36.2779 9.402 35.5579 9.402ZM39.6477 18.744C39.6477 18.408 39.7737 18.108 40.0257 17.844C40.2777 17.58 40.5717 17.448 40.9077 17.448C41.1597 17.448 41.3757 17.538 41.5557 17.718C41.7477 17.898 41.8437 18.114 41.8437 18.366C41.8437 18.69 41.7117 18.99 41.4477 19.266C41.1837 19.542 40.8837 19.68 40.5477 19.68C40.3077 19.68 40.0977 19.59 39.9177 19.41C39.7377 19.23 39.6477 19.008 39.6477 18.744Z" fill="#E9E1DC"/>
</svg>
