<svg width="1336" height="133" viewBox="0 0 1336 133" fill="none" xmlns="http://www.w3.org/2000/svg">
<path d="M166 63.5C96.1667 62.8711 -0.501747 0.157738 -0.501747 0.157738L-83 123H1369.97C1369.97 123 1412.42 63.5187 1379.47 40.0815C1344.99 15.5579 1315.18 31.3859 1265.5 29C1199.12 25.8118 1194.36 12.4182 1128 9C1048.07 4.88235 993.363 86.2175 913.5 81.5C841.895 77.2703 784.321 1.6752 712.483 0.157738C626.265 -1.66347 632.374 69.0598 546.5 63.5C479.316 59.1503 412.344 3.04056 344.991 0.157738C272.52 -2.94412 238.607 64.1539 166 63.5Z" fill="#E39C8B" fill-opacity="0.6"/>
<path d="M155.356 23.6582C90.3458 20.2086 -4.79573 62.8 -4.79573 62.8L-20 133H1355.99L1357 16C1357 16 1227.72 85.8711 1135.02 86.6255C1049.71 87.3196 1012.49 27.6058 927.226 30.04C850.011 32.2445 818.428 84.1011 741.227 86.6255C654.663 89.4559 616.517 30.1905 529.888 30.04C442.693 29.8885 403.721 94.4735 317.028 86.6255C247.828 80.361 224.818 27.344 155.356 23.6582Z" fill="url(#paint0_linear_122_17)"/>
<defs>
<linearGradient id="paint0_linear_122_17" x1="747.5" y1="63.5" x2="747.5" y2="115" gradientUnits="userSpaceOnUse">
<stop stop-color="#E9E1DC" stop-opacity="0.6"/>
<stop offset="0.938095" stop-color="#E9E1DC"/>
</linearGradient>
</defs>
</svg>
