<svg width="168" height="87" viewBox="0 0 168 87" fill="none" xmlns="http://www.w3.org/2000/svg">
<path d="M164 30.3137C164 48.7312 155.818 62.5842 142.994 71.8489C130.154 81.1253 112.64 85.8138 94 85.8138C89.1802 85.8138 84.0545 85.9236 78.78 86.0366C63.5095 86.3639 46.992 86.7178 33.0413 84.5103C23.6641 83.0265 15.5217 80.3937 9.73158 75.8684C3.96829 71.364 0.5 64.9581 0.5 55.8138C0.5 37.3793 7.69515 24.9169 19.4908 17.0391C31.3192 9.13955 47.8294 5.81376 66.5 5.81376C73.6815 5.81376 81.7153 5.36643 89.9933 4.9055C92.5217 4.76471 95.0729 4.62266 97.6295 4.4917C108.57 3.93126 119.622 3.57301 129.497 4.37171C139.381 5.17123 148.021 7.12605 154.178 11.1433C160.297 15.1356 164 21.1859 164 30.3137Z" stroke="#C8ADA0"/>
<path d="M167.5 26.9069C167.5 64.0813 134.432 82.9069 97 82.9069C59.5684 82.9069 3 89.5813 3 52.4069C3 15.2325 32.0684 1.9069 69.5 1.9069C106.932 1.9069 167.5 -10.2675 167.5 26.9069Z" fill="#D17165" fill-opacity="0.9"/>
</svg>
