<svg width="1336" height="670" viewBox="0 0 1336 670" fill="none" xmlns="http://www.w3.org/2000/svg">
<rect width="1336" height="668" fill="url(#paint0_linear_156_4)"/>
<path d="M166 600.5C96.1667 599.871 -0.501747 537.158 -0.501747 537.158L-83 660H1369.97C1369.97 660 1412.42 600.519 1379.47 577.081C1344.99 552.558 1315.18 568.386 1265.5 566C1199.12 562.812 1194.36 549.418 1128 546C1048.07 541.882 993.363 623.218 913.5 618.5C841.895 614.27 784.321 538.675 712.483 537.158C626.265 535.337 632.374 606.06 546.5 600.5C479.316 596.15 412.344 540.041 344.991 537.158C272.52 534.056 238.607 601.154 166 600.5Z" fill="#E39C8B" fill-opacity="0.6"/>
<path d="M155.356 560.658C90.3458 557.209 -4.79573 599.8 -4.79573 599.8L-20 670H1355.99L1357 553C1357 553 1227.72 622.871 1135.02 623.625C1049.71 624.32 1012.49 564.606 927.226 567.04C850.011 569.245 818.428 621.101 741.227 623.625C654.663 626.456 616.517 567.19 529.888 567.04C442.693 566.889 403.721 631.474 317.028 623.625C247.828 617.361 224.818 564.344 155.356 560.658Z" fill="url(#paint1_linear_156_4)"/>
<defs>
<linearGradient id="paint0_linear_156_4" x1="0" y1="0" x2="1956" y2="815" gradientUnits="userSpaceOnUse">
<stop stop-color="#D17165"/>
<stop offset="1" stop-color="#6B3A34" stop-opacity="0.8"/>
</linearGradient>
<linearGradient id="paint1_linear_156_4" x1="747.5" y1="600.5" x2="747.5" y2="652" gradientUnits="userSpaceOnUse">
<stop stop-color="#E9E1DC" stop-opacity="0.6"/>
<stop offset="0.938095" stop-color="#E9E1DC"/>
</linearGradient>
</defs>
</svg>
